Coordinates
version=1
nRows=13
nColumns=36
inDegrees=yes

Units are S.I. units (second, meters, Newtons, ...)
If the header above contains a line with 'inDegrees', this indicates whether rotational values are in degrees (yes) or radians (no).

endheader
time	pelvis_tilt	pelvis_list	pelvis_rotation	pelvis_tx	pelvis_ty	pelvis_tz	hip_flexion_r	hip_adduction_r	hip_rotation_r	knee_angle_r	knee_angle_r_beta	ankle_angle_r	subtalar_angle_r	mtp_angle_r	hip_flexion_l	hip_adduction_l	hip_rotation_l	knee_angle_l	knee_angle_l_beta	ankle_angle_l	subtalar_angle_l	mtp_angle_l	lumbar_extension	lumbar_bending	lumbar_rotation	arm_flex_r	arm_add_r	arm_rot_r	elbow_flex_r	pro_sup_r	arm_flex_l	arm_add_l	arm_rot_l	elbow_flex_l	pro_sup_l
      1.48333330	     -6.33499722	      1.90418579	     -2.96965019	     -0.11806465	      1.26259663	     -0.05391759	      4.22098683	     -4.89845779	     -0.19410674	      4.19954056	      0.07329581	     17.66876898	      4.16892932	     -7.49999655	      5.18247882	      0.41150564	      9.67011047	      4.66182494	      0.08136419	     10.60968149	      1.42561877	     -7.49999655	      5.36626991	     -1.44039495	     -3.58770742	      3.73299818	     -9.09699230	     18.78710539	     14.56290978	     76.04962702	      2.92168105	     -7.44241979	      9.29057352	     11.45257986	     75.94148780
      1.50000000	     -6.46464265	      1.92533516	     -2.95742647	     -0.12596009	      1.26208509	     -0.05853881	      4.25997534	     -4.91789110	     -0.27185549	      3.99208443	      0.06967502	     17.61226966	      4.20180016	     -7.49999657	      5.39667618	      0.39676546	      9.65447216	      4.61709567	      0.08058352	     10.59841260	      1.46589853	     -7.49999657	      5.25728761	     -1.46971530	     -3.58743392	      3.84787897	     -9.05834542	     18.81005627	     14.47402679	     76.06570873	      3.23116476	     -7.50653171	      9.31673281	     11.50623568	     75.96855519
      1.51666670	     -6.34730493	      1.92895210	     -3.01622214	     -0.10601461	      1.26569036	     -0.05662523	      3.88340745	     -4.91652624	     -0.43118556	      3.66413239	      0.06395117	     17.47474771	      4.45436350	     -7.49999719	      5.11661067	      0.37212183	      9.66851099	      4.37582466	      0.07637255	     10.51660571	      1.52962765	     -7.49999719	      5.38284622	     -1.47977526	     -3.51736937	      3.62661617	     -8.88187175	     19.16350681	     13.61775623	     75.38177875	      3.20244980	     -7.52065170	     10.00083474	     11.03611415	     75.51333556
      1.53333330	     -6.38329241	      1.87971423	     -3.11522086	     -0.10461563	      1.26280049	     -0.05668674	      3.78801454	     -4.84787414	     -0.51310890	      3.54925517	      0.06194619	     17.53713073	      4.52668917	     -7.49999737	      4.97052513	      0.28659050	      9.61908968	      4.16442625	      0.07268295	     10.38673468	      1.53495141	     -7.49999737	      5.59124129	     -1.43936405	     -3.45513488	      3.41364164	     -8.78197987	     19.17332673	     13.39927100	     74.67781177	      3.06761452	     -7.47439816	     10.05758582	     10.71522778	     74.82663382
      1.55000000	     -6.40479528	      1.88620664	     -3.13200369	     -0.11560627	      1.26904176	     -0.06119600	      3.84424962	     -4.85057751	     -0.51334564	      3.52367639	      0.06149975	     17.54307400	      4.52520036	     -7.49999737	      4.95655962	      0.29651945	      9.62054727	      4.15530634	      0.07252378	     10.39034943	      1.53758639	     -7.49999737	      5.59098254	     -1.44473061	     -3.46253458	      3.39677865	     -8.78152251	     19.17409741	     13.39440393	     74.67852230	      3.06432829	     -7.47407413	     10.05843293	     10.71599096	     74.82758255
      1.56666670	     -6.26587883	      1.80723397	     -3.20692541	     -0.11607853	      1.26311939	     -0.05404511	      3.62895771	     -4.74856923	     -0.57166919	      3.33712599	      0.05824384	     17.58145202	      4.64976545	     -7.49999768	      4.73757450	      0.22494878	      9.53595862	      4.15003528	      0.07243178	     10.61406596	      1.77802434	     -7.49999768	      5.19134645	     -1.33503166	     -3.39947855	      3.70932816	     -8.72274768	     19.69067392	     13.24222040	     74.89479315	      3.34747450	     -7.44443568	     10.75526668	     10.47669398	     75.21552265
      1.58333330	     -6.27750153	      1.84440968	     -3.25050663	     -0.10609474	      1.26259683	     -0.05651514	      3.43351477	     -4.75542225	     -0.64264085	      3.10326630	      0.05416221	     17.44901754	      4.69041690	     -7.49999771	      4.63695819	      0.25669720	      9.48776399	      4.05260401	      0.07073128	     10.58440259	      1.80378035	     -7.49999771	      5.35533544	     -1.39083230	     -3.30596081	      3.83240623	     -8.63938723	     19.68804649	     13.26475412	     74.97686374	      3.24755311	     -7.48118666	     10.74794060	     10.38556250	     75.32421619
      1.60000000	     -6.16280458	      1.78529182	     -3.24665128	     -0.10462487	      1.26643016	     -0.05675473	      3.21813215	     -4.67714343	     -0.53177157	      3.04255251	      0.05310256	     17.47171338	      4.79737084	     -7.49999790	      4.36048359	      0.17941789	      9.47981488	      3.88995087	      0.06789245	     10.49517468	      1.88888075	     -7.49999790	      5.36933693	     -1.34826171	     -3.42680446	      3.71940441	     -8.53663955	     19.53127083	     13.17725405	     74.51701762	      3.20159226	     -7.43795237	     10.68812492	     10.11288526	     74.96652508
      1.61666670	     -5.92505809	      1.85360509	     -3.45518131	     -0.09503098	      1.26296193	     -0.05896770	      2.84674602	     -4.75629896	     -0.33925989	      3.01293616	      0.05258566	     17.45142534	      4.74074699	     -7.49999801	      3.87187283	      0.25920080	      9.40980792	      3.69717376	      0.06452786	     10.41931519	      1.78615939	     -7.49999801	      5.43060945	     -1.43778895	     -3.35845412	      3.43551946	     -8.54908824	     19.09694134	     13.60215405	     74.23939357	      2.83311852	     -7.33065406	     10.44423026	     10.10029366	     74.91875389
      1.63333330	     -5.99844976	      1.87508099	     -3.43233862	     -0.11614579	      1.26050893	     -0.05387572	      2.93846247	     -4.76432275	     -0.46049630	      3.01246510	      0.05257743	     17.49947871	      4.91768546	     -7.49999828	      4.02999275	      0.26129110	      9.47734542	      3.83683218	      0.06696535	     10.58840722	      1.82695876	     -7.49999828	      5.44961606	     -1.47820600	     -3.47983279	      3.66155956	     -8.56872404	     19.63973744	     13.74224452	     73.75102149	      2.97071605	     -7.44872418	     10.96728074	     10.13551798	     74.71365387
      1.65000000	     -5.99245100	      1.90159577	     -3.61968321	     -0.09511679	      1.26695986	     -0.05888526	      2.91576304	     -4.79959231	      0.09818311	      3.12547578	      0.05454984	     17.46470809	      4.51696550	     -7.49999848	      3.84305184	      0.28209161	      9.37228741	      3.73571865	      0.06520059	     10.37722818	      1.64909473	     -7.49999848	      5.76198964	     -1.44687140	     -3.34694517	      3.34342114	     -8.55654891	     19.46730605	     13.60763899	     72.28744130	      2.59011864	     -7.23934399	     10.83463565	      9.75084964	     73.26398626
      1.66666670	     -5.96763802	      1.90246605	     -3.57536758	     -0.10436354	      1.26656875	     -0.05644433	      2.90212747	     -4.78245723	      0.11954001	      3.16822394	      0.05529594	     17.51523629	      4.53954734	     -7.49999848	      3.80534693	      0.28049447	      9.38209368	      3.78129030	      0.06599597	     10.36937052	      1.65666572	     -7.49999848	      5.72634067	     -1.45440114	     -3.43340305	      3.19179804	     -8.63106952	     19.46333564	     13.54270719	     72.30749941	      2.55695658	     -7.23822303	     10.84586147	      9.73495740	     73.29443913
      1.68333330	     -5.64718569	      1.88556198	     -3.53354220	     -0.10576133	      1.27003376	     -0.05641809	      2.55362097	     -4.76566913	     -0.06176523	      3.22467163	      0.05628114	     17.69802176	      4.74226565	     -7.49999929	      3.44382252	      0.29433186	      9.44611187	      3.81326710	      0.06655407	     10.43742552	      1.56612452	     -7.49999929	      5.34289245	     -1.45269450	     -3.43821261	      3.37607014	     -8.52606893	     17.72697154	     13.60101437	     76.34087196	      2.73599633	     -7.22488914	      9.53926829	      9.54508689	     78.57750146
